<?xml version="1.0" encoding="utf-8"?>
<!-- Generator: Adobe Illustrator 24.1.3, SVG Export Plug-In . SVG Version: 6.00 Build 0)  -->
<svg version="1.1" id="Layer_1" xmlns="http://www.w3.org/2000/svg" xmlns:xlink="http://www.w3.org/1999/xlink" x="0px" y="0px"
	 viewBox="0 0 221 21" style="enable-background:new 0 0 221 21;" xml:space="preserve">
<path d="M119.29688,7.80879v0.8512h-1.27014V7.74312c0.00665-0.05591,0.00616-0.11249-0.00146-0.16827
	c-0.04968-0.36182-0.3833-0.61481-0.74506-0.56512h-2.00378c-0.05396-0.00671-0.10852-0.00671-0.16241,0
	c-0.36023,0.04486-0.61584,0.37323-0.57098,0.7334v5.51355c-0.00671,0.05402-0.00671,0.10864,0.00006,0.16266
	c0.04498,0.36005,0.37329,0.61548,0.73334,0.5705h2.00378c0.05585,0.00769,0.11243,0.00824,0.1684,0.00153
	c0.36249-0.04321,0.62134-0.37213,0.57812-0.73468v-1.23102h1.27014v1.16559c0.01593,0.13477,0.01593,0.27094,0,0.40576
	c-0.112,0.95111-0.97388,1.63135-1.92505,1.51929h-2.20013c-0.13483,0.01593-0.271,0.01593-0.40576,0
	c-0.95117-0.112-1.63141-0.97388-1.51935-1.92505V7.80879c-0.01593-0.13489-0.01593-0.27112,0-0.40601
	c0.11212-0.95111,0.974-1.63116,1.92505-1.51904h2.2002c0.13495-0.01593,0.27124-0.01593,0.40619,0
	C118.729,5.99586,119.40906,6.8578,119.29688,7.80879z M139.8028,5.88374c-0.13489-0.01593-0.27124-0.01593-0.40613,0h-2.2002
	c-0.95105-0.11212-1.81299,0.56793-1.92511,1.51904c-0.01587,0.13489-0.01587,0.27112,0,0.40601v5.38245
	c-0.112,0.95117,0.56824,1.81305,1.51935,1.92505c0.13483,0.01593,0.271,0.01593,0.40576,0h2.2002
	c0.95111,0.11206,1.81299-0.56818,1.92505-1.51929c0.01587-0.13483,0.01587-0.271,0-0.40576v-1.16559h-1.27014v1.23102
	c0.04321,0.36255-0.21564,0.69147-0.57819,0.73468c-0.05597,0.00671-0.11255,0.00616-0.1684-0.00153h-2.00372
	c-0.36005,0.04498-0.68842-0.21045-0.7334-0.5705c-0.00671-0.05402-0.00671-0.10864,0-0.16266V7.74312
	c-0.04486-0.36017,0.21075-0.68854,0.57092-0.7334c0.05396-0.00671,0.10852-0.00671,0.16248,0h2.00372
	c0.36182-0.04968,0.69537,0.20331,0.74506,0.56512c0.00769,0.05579,0.00818,0.11237,0.00153,0.16827v0.91687h1.27014v-0.8512
	C141.4339,6.8578,140.75385,5.99586,139.8028,5.88374z M109.01758,13.23054c0.0481,0.36414-0.20807,0.6983-0.57214,0.7464
	c-0.05792,0.00763-0.11658,0.00763-0.17444-0.00006h-2.14764c-0.35907,0.04681-0.68811-0.2063-0.73499-0.56537
	c-0.00781-0.06012-0.00726-0.12103,0.00159-0.18097V5.93599h-1.29651v7.25525c-0.11194,0.95117,0.56836,1.81311,1.51959,1.92505
	c0.1347,0.01587,0.27081,0.01587,0.40552,0h2.37042c0.95129,0.11206,1.81323-0.56818,1.92529-1.51947
	c0.01587-0.1347,0.01587-0.27087,0-0.40558V5.93599h-1.29669V13.23054z M126.94403,9.78602h-3.62805V5.93599h-1.29596v9.12805
	h1.29596v-4.151h3.62805v4.151h1.29596V5.93599h-1.29596V9.78602z M101.16095,7.80879v5.38245
	c0.01587,0.1347,0.01587,0.27081,0,0.40552c-0.112,0.95123-0.97388,1.63153-1.92511,1.51953h-2.37042
	c-0.1347,0.01587-0.27087,0.01593-0.40558,0.00006c-0.95123-0.11194-1.63165-0.97388-1.51971-1.92511V7.80879
	c-0.01587-0.13489-0.01587-0.27112,0.00006-0.40601c0.11218-0.95117,0.97412-1.63123,1.92529-1.51904h2.37042
	c0.13483-0.01593,0.27112-0.01593,0.40601,0C100.59296,5.99586,101.27307,6.85774,101.16095,7.80879z M99.8645,7.74312
	c0.00775-0.06,0.00726-0.12079-0.00165-0.1806c-0.05304-0.3584-0.3866-0.60583-0.74493-0.5528h-2.14764
	c-0.05396-0.00671-0.10852-0.00671-0.16248,0c-0.36017,0.04486-0.61578,0.37323-0.57092,0.7334v5.4743
	c-0.00836,0.05511-0.00983,0.11115-0.00433,0.16663c0.03644,0.37103,0.3667,0.64227,0.73773,0.60583h2.14764
	c0.05585,0.00769,0.11243,0.00818,0.1684,0.00153c0.36249-0.04321,0.6214-0.37213,0.57812-0.73468h0.00006V7.74312z
	 M90.82941,5.88368c-0.13489-0.01587-0.27118-0.01587-0.40607,0.00006h-2.2002c-0.95105-0.11212-1.81293,0.56793-1.92505,1.51904
	c-0.01593,0.13489-0.01593,0.27112,0,0.40601v5.38245c-0.11206,0.95117,0.56818,1.81305,1.51935,1.92505
	c0.13477,0.01593,0.27094,0.01593,0.4057,0h2.2002c0.95123,0.112,1.81311-0.5683,1.92505-1.51953
	c0.01587-0.1347,0.01587-0.27081,0-0.40552v-1.16559h-1.27032v1.23102c0.04321,0.36255-0.21564,0.69147-0.57819,0.73468
	c-0.05597,0.00671-0.11255,0.00616-0.1684-0.00153H88.328c-0.36005,0.04498-0.68842-0.21045-0.73334-0.5705
	c-0.00677-0.05402-0.00677-0.10864-0.00006-0.16266V7.74312c-0.04486-0.36017,0.21075-0.68854,0.57092-0.7334
	c0.05396-0.00671,0.10852-0.00671,0.16248,0h2.00354c0.36182-0.04968,0.69537,0.20331,0.74506,0.56512
	c0.00769,0.05579,0.00818,0.11237,0.00153,0.16827v0.91687h1.27032v-0.8512C92.46063,6.85774,91.78052,5.99586,90.82941,5.88368z
	 M215.42303,13.951v-3.065h3.995V9.79902h-3.995v-2.75h4.32196V5.93599h-5.61798v9.12805h5.72302V13.951H215.42303z
	 M162.45599,15.06404h1.29602V11.24h4.12598v-1.11298h-4.12598v-3.078h4.453V5.93599h-5.74902V15.06404z M201.164,12.68001
	l-3.81097-6.74402h-1.21802v9.12805h1.20502V8.31898l3.83698,6.74506h1.17902V5.93599H201.164V12.68001z M171.96204,10.886h3.995
	V9.79902h-3.995v-2.75h4.32196V5.93599h-5.61798v9.12805h5.72302V13.951h-4.427V10.886z M183.6958,11.37074l1.29645,3.69305
	h-1.38812l-1.21802-3.62756h-2.06903v3.62756h-1.29645V5.93599h4.03357c0.13483-0.01587,0.271-0.01587,0.40582,0
	c0.95111,0.11206,1.63135,0.974,1.51929,1.92511v1.65002C185.08569,10.36696,184.53369,11.16664,183.6958,11.37074z
	 M183.6828,7.61995c-0.04486-0.36017-0.37317-0.61578-0.73334-0.57092h-2.63232v3.27411h2.63232
	c0.05585,0.00665,0.11237,0.00616,0.16809-0.00146c0.36182-0.04968,0.61493-0.38324,0.56525-0.74506V7.78242
	C183.68958,7.72847,183.68958,7.6739,183.6828,7.61995z M150.13446,7.80879v5.38245c0.01587,0.1347,0.01587,0.27081,0,0.40552
	c-0.11194,0.95123-0.97388,1.63153-1.92505,1.51953h-2.37048c-0.13477,0.01593-0.27094,0.01593-0.4057,0
	c-0.95117-0.112-1.63141-0.97394-1.51935-1.92505V7.80879c-0.01593-0.13489-0.01593-0.27124,0-0.40613
	c0.11218-0.95105,0.97406-1.6311,1.92505-1.51892h2.37048c0.13483-0.01593,0.27112-0.01593,0.40601,0
	C149.56653,5.99586,150.24658,6.85774,150.13446,7.80879z M148.83795,7.74312c0.00781-0.06,0.00726-0.12079-0.00159-0.1806
	c-0.0531-0.3584-0.3866-0.60583-0.74493-0.5528h-2.14771c-0.05396-0.00671-0.10852-0.00671-0.16248,0
	c-0.36017,0.04492-0.61572,0.37323-0.57086,0.7334v5.4743c-0.00836,0.05518-0.00983,0.11121-0.00433,0.16675
	c0.03644,0.37097,0.3667,0.64215,0.73767,0.60571h2.14771c0.05579,0.00769,0.11243,0.00818,0.16833,0.00153
	c0.36255-0.04321,0.62146-0.37213,0.57819-0.73468V7.74312z M209.88489,5.88374c-0.13489-0.01593-0.27124-0.01593-0.40613,0h-2.2002
	c-0.95105-0.11212-1.81293,0.56793-1.92505,1.51904c-0.01593,0.13489-0.01593,0.27112,0,0.40601v5.38245
	c-0.11206,0.95117,0.56818,1.81305,1.51935,1.92505c0.13477,0.01593,0.27094,0.01593,0.4057,0h2.2002
	c0.95111,0.11206,1.81305-0.56818,1.92505-1.51929c0.01587-0.13483,0.01587-0.271,0-0.40576v-1.16559h-1.27014v1.23102
	c0.04321,0.36255-0.21564,0.69147-0.57812,0.73468c-0.05597,0.00671-0.11261,0.00616-0.16846-0.00153h-2.00372
	c-0.36005,0.04486-0.68829-0.21063-0.73315-0.57074c-0.00671-0.05389-0.00671-0.10846,0-0.16241V7.74312
	c-0.04492-0.36011,0.21063-0.68848,0.5708-0.73334c0.05389-0.00677,0.10846-0.00677,0.16235-0.00006h2.00372
	c0.36182-0.04968,0.69537,0.20331,0.74512,0.56512c0.00763,0.05579,0.00812,0.11237,0.00146,0.16827v0.91687h1.27014v-0.8512
	C211.51599,6.8578,210.83594,5.99586,209.88489,5.88374z M189.07703,10.886h3.995V9.79902h-3.995v-2.75h4.32196V5.93599h-5.61798
	v9.12805h5.72302V13.951h-4.427V10.886z M158.13501,12.68001l-3.81097-6.74402h-1.21802v9.12805h1.20502V8.31898l3.83698,6.74506
	h1.17902V5.93599h-1.19202V12.68001z"/>
<g>
	<path d="M5.62664,14.31079H1.56599v-3.63711h3.65045c0.15043,0,0.20511-0.05466,0.20511-0.2051v-0.39643
		c0-0.15043-0.05467-0.2051-0.20511-0.2051H1.56599V6.68125h3.89666c0.13666,0,0.20511-0.05467,0.20511-0.20511V6.05238
		c0-0.15043-0.06844-0.2051-0.20511-0.2051H0.80026c-0.13687,0-0.19154,0.06823-0.19154,0.2051v8.88726
		c0,0.13666,0.05467,0.20511,0.17775,0.20511h4.84016c0.13687,0,0.20511-0.05466,0.20511-0.20511v-0.43753
		C5.83173,14.36545,5.76351,14.31079,5.62664,14.31079z"/>
	<path d="M10.49454,5.73797c-2.25608,0-2.88494,0.90239-2.88494,1.99611v5.52389c0,1.09372,0.62886,1.99611,2.88494,1.99611
		s2.88494-0.90239,2.88494-1.99611V12.3829c0-0.13687-0.05467-0.2051-0.19133-0.2051h-0.54707
		c-0.15022,0-0.2051,0.06823-0.2051,0.2051v0.72463c0,0.79306-0.47842,1.31259-1.92767,1.31259
		c-1.44946,0-1.92788-0.51953-1.92788-1.31259V7.88451c0-0.79306,0.47842-1.31259,1.92788-1.31259
		c1.44925,0,1.92767,0.51953,1.92767,1.31259v0.54686c0,0.15043,0.05487,0.21887,0.2051,0.21887h0.54707
		c0.13666,0,0.19133-0.06844,0.19133-0.21887V7.73408C13.37948,6.64036,12.75062,5.73797,10.49454,5.73797z"/>
	<path d="M31.72963,10.30459l-2.57051-0.97084c-0.34176-0.13666-0.79306-0.39643-0.79306-1.06639V7.85718
		c0-0.79306,0.4513-1.29903,1.88678-1.29903c1.42213,0,1.87322,0.50596,1.87322,1.29903v0.51954
		c0,0.13666,0.05466,0.20511,0.19154,0.20511h0.56042c0.15043,0,0.20511-0.06844,0.20511-0.20511V7.73408
		c0-1.09372-0.66996-1.99611-2.84384-1.99611c-2.17408,0-2.81671,0.90239-2.81671,1.99611V8.4998
		c0.01959,0.74017,0.49228,1.39211,1.1897,1.64079l2.44741,0.94329c0.5333,0.2051,1.13482,0.49219,1.13482,1.20326v0.84773
		c0,0.79306-0.51953,1.29882-1.98255,1.29882c-1.44925,0-1.96899-0.50576-1.96899-1.29882v-0.62907
		c0-0.15022-0.05466-0.20511-0.19133-0.20511h-0.56062c-0.13666,0-0.19133,0.05489-0.19133,0.20511v0.75217
		c0,1.09372,0.71085,1.99611,2.92583,1.99611s2.92604-0.90239,2.92604-1.99611v-1.17593
		C33.15155,11.12498,32.46803,10.57812,31.72963,10.30459z"/>
	<path d="M40.6993,5.8473H40.1251c-0.13667,0-0.19154,0.09556-0.2462,0.20511l-2.07811,3.9651
		c-0.08106,0.16788-0.14962,0.34154-0.2051,0.51953c-0.01377-0.02733-0.0822-0.25976-0.20511-0.51953l-2.00987-3.96512
		c-0.05487-0.1231-0.10954-0.2051-0.2462-0.2051h-0.6564c-0.13666,0-0.20489,0.06823-0.13666,0.2051l2.76184,5.41435v3.47291
		c-0.01412,0.09915,0.05479,0.19098,0.15395,0.20511c0.01697,0.00241,0.03419,0.00241,0.05116,0h0.5744
		c0.15044,0,0.20511-0.06844,0.20511-0.20511v-3.58223l2.74804-5.30503C40.90439,5.91552,40.83596,5.8473,40.6993,5.8473z"/>
	<path d="M46.29203,10.30459l-2.57051-0.97084c-0.34176-0.13666-0.79306-0.39643-0.79306-1.06639V7.85718
		c0-0.79306,0.4513-1.29903,1.88678-1.29903c1.42213,0,1.87322,0.50596,1.87322,1.29903v0.51954
		c0,0.13666,0.05466,0.20511,0.19154,0.20511h0.56042c0.15044,0,0.2051-0.06844,0.2051-0.20511V7.73408
		c0-1.09372-0.66996-1.99611-2.84384-1.99611c-2.17408,0-2.8165,0.90239-2.8165,1.99611V8.4998
		c0.01949,0.74013,0.49213,1.39208,1.18949,1.64079l2.44741,0.94329c0.5333,0.2051,1.13482,0.49219,1.13482,1.20326v0.84773
		c0,0.79306-0.51953,1.29882-1.98255,1.29882c-1.44925,0-1.96899-0.50576-1.96899-1.29882v-0.62907
		c0-0.15022-0.05466-0.20511-0.19131-0.20511h-0.56063c-0.13666,0-0.19133,0.05489-0.19133,0.20511v0.75217
		c0,1.09372,0.71085,1.99611,2.92583,1.99611c2.21498,0,2.92604-0.90239,2.92604-1.99611v-1.17593
		C47.71395,11.12498,47.03043,10.57812,46.29203,10.30459z"/>
	<path d="M54.68771,5.8473h-5.68788c-0.15043,0-0.2051,0.05467-0.2051,0.20511v0.42376c0,0.15043,0.05467,0.2051,0.2051,0.2051
		h2.35164v8.25838c0,0.13666,0.05466,0.20511,0.20511,0.20511h0.58798c0.13666,0,0.19133-0.06844,0.19133-0.20511V6.68125h2.35185
		c0.13666,0,0.20511-0.05467,0.20511-0.20511V6.05238C54.89281,5.90196,54.82438,5.8473,54.68771,5.8473z"/>
	<path d="M61.41486,14.31079H57.3542v-3.63711h3.65046c0.15044,0,0.20511-0.05466,0.20511-0.2051v-0.39643
		c0-0.15043-0.05466-0.2051-0.20511-0.2051H57.3542V6.68125h3.89666c0.13666,0,0.20511-0.05467,0.20511-0.20511V6.05238
		c0-0.15043-0.06844-0.2051-0.20511-0.2051h-4.66239c-0.13687,0-0.19154,0.06823-0.19154,0.2051v8.88726
		c0,0.13666,0.05466,0.20511,0.17776,0.20511h4.84016c0.13687,0,0.2051-0.05466,0.2051-0.20511v-0.43753
		C61.61995,14.36545,61.55173,14.31079,61.41486,14.31079z"/>
	<path d="M70.80849,5.8473h-0.54684c-0.09577,0-0.16421,0.02733-0.19154,0.10933l-2.52943,6.05697
		c-0.10933,0.25976-0.2462,0.64263-0.25976,0.68373c-0.06902-0.23682-0.15121-0.46962-0.2462-0.69729l-2.58408-6.04341
		C64.42307,5.88408,64.35008,5.8392,64.2729,5.8473h-0.51953c-0.15043,0-0.20511,0.06823-0.20511,0.20511v8.88724
		c0,0.13666,0.05466,0.20511,0.20511,0.20511h0.51953c0.13666,0,0.19132-0.06844,0.19132-0.20511V7.89807
		c0.06314,0.24147,0.14076,0.47892,0.23244,0.71106l2.06475,4.90859c0.05466,0.13666,0.12289,0.20511,0.25977,0.20511h0.50575
		c0.12776,0.00347,0.24107-0.0815,0.27354-0.20511L69.783,8.73223c0.11166-0.27555,0.20306-0.55888,0.27354-0.84773v7.05513
		c0,0.13666,0.05466,0.20511,0.2051,0.20511h0.54686c0.15043,0,0.20511-0.06844,0.20511-0.20511V6.05238
		C71.01359,5.91552,70.95892,5.8473,70.80849,5.8473z"/>
	<path d="M77.64558,10.30459l-2.57051-0.97084c-0.34176-0.13666-0.79306-0.39643-0.79306-1.06639V7.85718
		c0-0.79306,0.4513-1.29903,1.88678-1.29903c1.42213,0,1.87322,0.50596,1.87322,1.29903v0.51954
		c0,0.13666,0.05466,0.20511,0.19154,0.20511h0.56041c0.15043,0,0.20511-0.06844,0.20511-0.20511V7.73408
		c0-1.09372-0.66996-1.99611-2.84383-1.99611c-2.17409,0-2.81651,0.90239-2.81651,1.99611V8.4998
		c0.01949,0.74013,0.49212,1.39208,1.18948,1.64079l2.44741,0.94329c0.5333,0.2051,1.13483,0.49219,1.13483,1.20326v0.84773
		c0,0.79306-0.51953,1.29882-1.98255,1.29882c-1.44925,0-1.96899-0.50576-1.96899-1.29882v-0.62907
		c0-0.15022-0.05466-0.20511-0.19132-0.20511h-0.56063c-0.13667,0-0.19133,0.05489-0.19133,0.20511v0.75217
		c0,1.09372,0.71085,1.99611,2.92583,1.99611s2.92604-0.90239,2.92604-1.99611v-1.17593
		C79.0675,11.12498,78.38398,10.57812,77.64558,10.30459z"/>
	<path d="M23.56448,6.04873c-0.63062-0.40523-1.34937-0.65299-2.09575-0.72242c-0.49244-0.17016-1.00974-0.25731-1.53077-0.25787
		V5.3889c0.05778,0,0.11507,0.00348,0.17253,0.00576c-0.7698,0.15222-1.48785,0.4989-2.0858,1.00705
		c-0.69515,0.22957-1.32584,0.62101-1.84008,1.14206c0.77959-1.33382,2.20817-2.15404,3.75311-2.15488l0.00023-0.32047
		l-0.00025-0.00001c-2.12766,0.00258-3.98614,1.43924-4.52461,3.49763c-1.26259,2.2547-0.45832,5.10603,1.79638,6.36863
		c0.70028,0.39214,1.48966,0.59756,2.29226,0.5965c0.14943,0,0.29921-0.00959,0.4489-0.02405
		c2.16749,0.29801,4.25227-0.94523,5.02036-2.99385C26.36774,10.33974,25.73801,7.44547,23.56448,6.04873z M18.85008,6.20875
		c0.6618-0.38249,1.41249-0.5843,2.17686-0.58524l0.00006-0.09452l0.00017,0.00004v0.09448
		c0.1227,0,0.24436,0.00703,0.36545,0.01727c0.8227,0.29148,1.53957,0.82204,2.05869,1.52367
		c-0.82178-0.63454-1.83058-0.97904-2.86883-0.97967v0.10949l-0.00008-0.00003l0.00008-0.10946l-0.00026-0.00001
		c-0.14936,0.00001-0.29907,0.0096-0.44867,0.02405c-0.21215-0.0296-0.42608-0.04462-0.64028-0.04499v0.15221l-0.00012,0.00003
		l0.00012-0.15223l-0.00026-0.00001c-0.21571,0.00044-0.43114,0.01584-0.64473,0.0461L18.85008,6.20875z M23.99431,8.14837
		c0.33368,0.83591,0.39796,1.75515,0.18392,2.62937c-0.02479-1.80463-1.08666-3.43362-2.72779-4.18463
		C22.454,6.79855,23.35401,7.34879,23.99431,8.14837z M18.17471,6.6921v0.00001c0.20091-0.06398,0.40619-0.11329,0.61423-0.14755
		c-0.40147,0.16503-0.77651,0.38815-1.11311,0.66221C17.82755,7.02167,17.99443,6.84952,18.17471,6.6921z M18.40539,7.09048V7.0905
		c0.52783-0.30404,1.11341-0.49429,1.71913-0.55858c2.37994,0.34284,4.03131,2.55009,3.68847,4.93002
		c-0.02261,0.15703-0.0538,0.31271-0.09342,0.46634c-0.77571,1.3517-2.21467,2.18577-3.77313,2.18705
		c-0.12272,0-0.24444-0.00704-0.36556-0.01728c-2.26858-0.79649-3.46194-3.28122-2.66543-5.5498
		c0.00879-0.02505,0.01781-0.05002,0.02706-0.0749C17.31503,7.90411,17.81613,7.43042,18.40539,7.09048z M23.25483,13.05584
		c-0.23882,0.40896-0.54317,0.77594-0.90089,1.0863c-0.42608,0.13682-0.87075,0.20691-1.31827,0.20777
		c-0.05783,0-0.11516-0.00348-0.17267-0.00576C21.7711,14.16335,22.60421,13.71459,23.25483,13.05584z M16.97578,12.32816
		c0.33321,0.57761,0.78644,1.07703,1.3291,1.46453c-0.69325-0.28178-1.30278-0.7364-1.77052-1.32054
		c-0.33703-0.84388-0.39952-1.77252-0.17859-2.65394C16.32127,10.69662,16.53623,11.56685,16.97578,12.32816z M15.71988,8.67132
		c0.38091-0.66584,0.93177-1.21861,1.59629-1.6018c0.03308-0.0191,0.06735-0.03572,0.10088-0.05392
		c-0.32795,0.39667-0.58817,0.84477-0.77015,1.32621c-0.60043,0.93776-0.84806,2.05838-0.69867,3.16183
		C15.5571,10.61175,15.47669,9.61436,15.71988,8.67132z M15.71941,13.0287c-0.56191-0.96941-0.72614-2.11889-0.45819-3.20687
		c0.01033,0.79832,0.22565,1.58058,0.62534,2.27172c0.1107,0.19144,0.23473,0.37488,0.37115,0.54893
		c0.441,1.10319,1.2927,1.99232,2.37591,2.48034C17.40768,14.87312,16.34707,14.11099,15.71941,13.0287z M19.95966,15.18403
		c-1.1522-0.17011-2.18932-0.79186-2.88232-1.72796c0.70254,0.54173,1.54419,0.87335,2.42743,0.95643
		c0.69792,0.24319,1.4439,0.31581,2.17562,0.2118l-0.0018,0.00116C21.15084,14.92947,20.56532,15.11973,19.95966,15.18403z
		 M22.76782,14.64642c-0.45538,0.26208-0.95428,0.43992-1.47276,0.52498c0.43928-0.1813,0.84724-0.43067,1.20892-0.73892
		c0.52723-0.17255,1.01805-0.44099,1.44776-0.79182C23.62054,14.04412,23.21952,14.3848,22.76782,14.64642z M24.80037,11.99752
		c-0.03366,0.12562-0.07438,0.24805-0.11833,0.36883c-0.37221,0.5759-0.87588,1.05516-1.46954,1.39833
		c-0.0331,0.0191-0.06738,0.03573-0.1009,0.05394c0.43027-0.52198,0.74233-1.13096,0.91477-1.78507
		c0.49526-0.88647,0.68973-1.90963,0.5542-2.91597C24.98144,10.02408,25.05903,11.04069,24.80037,11.99752z M25.26237,11.02671
		c0.0325-0.87499-0.18249-1.74141-0.62025-2.49973c-0.11071-0.19145-0.23473-0.37487-0.37115-0.54893
		c-0.32653-0.81797-0.88313-1.52376-1.60245-2.03197C24.6791,6.75585,25.78565,8.9233,25.26237,11.02671z"/>
</g>
</svg>
