<?xml version="1.0"?>
<svg xmlns="http://www.w3.org/2000/svg" id="Capa_1" enable-background="new 0 0 512 512" height="512px" viewBox="0 0 512 512" width="512px" class=""><g><g><path d="m0 466.886c0 12.053 4.693 23.385 13.217 31.908 8.797 8.797 20.353 13.195 31.908 13.195s23.111-4.398 31.908-13.195l136.481-136.481c29.883 18.5 65.081 29.198 102.736 29.198 107.937 0 195.75-87.813 195.75-195.75s-87.813-195.75-195.75-195.75-195.75 87.813-195.75 195.75c0 37.655 10.698 72.853 29.198 102.736l-136.481 136.481c-8.524 8.522-13.217 19.855-13.217 31.908zm482-271.125c0 91.395-74.355 165.75-165.75 165.75s-165.75-74.355-165.75-165.75 74.355-165.75 165.75-165.75 165.75 74.355 165.75 165.75zm-452 271.125c0-4.04 1.573-7.838 4.43-10.695l133.191-133.191c6.572 7.666 13.725 14.818 21.39 21.39l-133.191 133.191c-5.898 5.896-15.494 5.897-21.391 0-2.856-2.857-4.429-6.655-4.429-10.695z" data-original="#000000" class="active-path" data-old_color="#000000" fill="#C5C5C5"/><path d="m451.75 195.761c0-74.715-60.785-135.5-135.5-135.5s-135.5 60.785-135.5 135.5 60.785 135.5 135.5 135.5 135.5-60.785 135.5-135.5zm-30 0c0 58.173-47.327 105.5-105.5 105.5s-105.5-47.327-105.5-105.5 47.327-105.5 105.5-105.5 105.5 47.327 105.5 105.5z" data-original="#000000" class="active-path" data-old_color="#000000" fill="#C5C5C5"/></g></g> </svg>
